<?xml version="1.0" encoding="utf-8"?>
<!-- Generator: Adobe Illustrator 26.0.1, SVG Export Plug-In . SVG Version: 6.00 Build 0)  -->
<svg version="1.1" id="圖層_1" xmlns="http://www.w3.org/2000/svg" xmlns:xlink="http://www.w3.org/1999/xlink" x="0px" y="0px"
	 viewBox="0 0 300 300" style="enable-background:new 0 0 300 300;" xml:space="preserve">
<style type="text/css">
	.st0{fill:#FFFFFF;}
</style>
<path class="st0" d="M228.53,153.55l-24.15-32.09c-1.17-1.55-3.49-1.57-4.69-0.04l-24.96,32.09c-1.51,1.94-0.13,4.76,2.33,4.76
	h16.13c-4.18,24.99-25.95,44.1-52.11,44.1c-29.14,0-52.84-23.71-52.84-52.84s23.71-52.84,52.84-52.84
	c15.93,0,30.85,7.08,40.95,19.44c3.02,3.7,8.47,4.24,12.17,1.23c3.7-3.02,4.25-8.47,1.23-12.17c-13.39-16.39-33.2-25.79-54.34-25.79
	c-38.67,0-70.14,31.46-70.14,70.14s31.46,70.14,70.14,70.14c35.71,0,65.25-26.83,69.57-61.39h15.52
	C228.61,158.28,230,155.5,228.53,153.55z"/>
</svg>
