<svg id="圖層_1" data-name="圖層 1" xmlns="http://www.w3.org/2000/svg" viewBox="0 0 672 358.31"><defs><style>.cls-1{fill:#fff;}</style></defs><path class="cls-1" d="M110.79,347.59c-1,3.6-1.64,7.39-3.21,10.74-1.18,2.52-1.42,5.12-2.15,7.67-.57,2-1.38,4-2,6-.35,1.22-.33,2.53-.66,3.75-1.29,4.74-2.71,9.45-4,14.2-1.58,5.88-3.06,11.79-4.58,17.68-1,4-2,7.94-3.05,11.9-.85,3.26-.87,6.66-2.79,9.75-1,1.61-.47,4.12-.89,6.17-1.35,6.64-2.81,13.26-4.23,19.89-.71,3.33-1.5,6.64-2.16,10-.94,4.72-1.85,9.44-2.66,14.19-1,6-1.9,12.05-2.87,18.07-.88,5.43-2,10.83-2.67,16.29-.52,3.95-.61,8-.83,11.95-.12,2.11,0,4.24-.18,6.34-.2,2.37-.33,4.66,2,6.26A5.63,5.63,0,0,1,66.37,536,12.89,12.89,0,0,1,64.89,532a44.69,44.69,0,0,1-.88-8c.1-9.15.27-18.3.72-27.43.19-3.92,1.14-7.8,1.73-11.7a33.8,33.8,0,0,0,.46-3.48c.15-2.66,0-5.24,1.19-7.9.89-2,.41-4.58.6-6.9.39-4.8.82-9.58,2.58-14.15a21.57,21.57,0,0,0,.7-4.14q1.56-9,3.13-18.07a3.32,3.32,0,0,1,.25-1c2.89-5.24,2.7-11.32,4.63-16.84,1.15-3.28,1.5-6.84,2.2-10.28a2.42,2.42,0,0,1,.12-.69c2.6-4.25,2-9.29,3.42-13.85s2.29-9.36,3.46-14c.2-.77.8-1.44,1-2.21.48-1.61,1.5-3.1,1-5a4.21,4.21,0,0,1,.17-2.4c1.07-3.1,2.33-6.13,3.36-9.24.87-2.66,1.38-5.44,2.29-8.09,1.49-4.32,3.25-8.55,4.75-12.87.84-2.41,1.22-5,2.13-7.37,1.69-4.42,2.84-9,4.59-13.44,2.78-7.05,4.48-14.52,6.69-21.79A14,14,0,0,1,117,287c2-2.74,2.83-5.86,3.6-9.08,1.25-5.19,5-8.19,9.83-9.67,3.87-1.19,5.78,1.05,7.65,4.86,2,4.1.8,7.66.22,11.5a16.16,16.16,0,0,0,0,2.09,34.22,34.22,0,0,1-1.48,10c-1.15,3.52-1.52,7.3-2.22,11-.09.46,0,1-.17,1.4-2.06,3.82-1.74,8.15-2.5,12.23-1.06,5.75-1.61,11.6-2.37,17.41-.11.81-.08,1.65-.25,2.45-1.18,5.48-2.49,10.93-3.55,16.43-.49,2.52-.4,5.14-.79,7.68-.48,3.11-1.18,6.18-1.78,9.27a21.53,21.53,0,0,0-.62,3.45c-.07,2.78,0,5.57,0,8.35a12.4,12.4,0,0,1-.47,2,35.76,35.76,0,0,0-.79,4.45c-.28,4.09-.42,8.19-.63,12.29a2.43,2.43,0,0,1-.29,1.36c-2.64,2.81-1.32,6.2-1.4,9.37s.12,6.09,0,9.13a15.37,15.37,0,0,1-.94,4.09c-.34,1-.49,1.81,1,2.38.28-.55.63-1.09.86-1.67.88-2.3,1.72-4.62,2.58-6.93a8.6,8.6,0,0,0,.52-1.32c1-5.16,2-10.33,3.07-15.5a16.06,16.06,0,0,1,.48-2.41c2.1-5.72,4.25-11.42,6.38-17.13a4.29,4.29,0,0,0,.38-1.33,37.24,37.24,0,0,1,4.37-16.14c.37-.73-.07-1.83.1-2.72.58-3,1.1-6,1.93-8.95q2.91-10.32,6.15-20.55c.38-1.23,1.46-2.23,2.34-3.5-.23-3.48.84-7.08,1.88-10.61,3.43-11.59,7-23.13,10.62-34.66,1.44-4.57,3.21-9,4.7-13.6.77-2.34,1.15-4.8,1.88-7.15,1.68-5.38,3.46-10.72,5.2-16.07,1.21-3.74,4.57-6.5,7.85-6.55,1.84,0,3.13.35,2.56,2.56,2.55.54,4.06,1.3,5.14,4.15,1.71,4.51,1.36,8.72.44,13.06-1,4.7-2.09,9.38-2,14.23a8.4,8.4,0,0,1-.52,2.38c-.12.44-.63.89-.55,1.25,1.7,7.71-.91,15.28-.68,22.94a13.87,13.87,0,0,1-.41,2.43c-.55,3.27-1.22,6.54-1.58,9.84-.17,1.54.39,3.15.38,4.73,0,2-.29,3.94-.41,5.91-.18,3.15-.48,6.31-.45,9.47,0,3.67,0,7.27-1.39,10.76a5.46,5.46,0,0,0-.43,2.71c.93,5.27.08,10.49-.23,15.73a24.88,24.88,0,0,0-.1,4.56c.72,5.87-.7,11.63-.69,17.46,0,6.08-.36,12.17-.21,18.25a9,9,0,0,1-2,6.54c3.4,4.51,1.78,9.47,1.87,14.19.07,3.38-.82,6.77-.76,10.15.24,13.49.7,27,1.06,40.47.06,2.35-.05,4.71,0,7.06.26,5.84.58,11.69.88,17.54a20.36,20.36,0,0,1,.12,2.46c-.49,7.05.69,14.07.47,21.07-.1,3.29,1,6.22,1.11,9.38s.79,6.28,1.19,9.42c.18,1.39.31,2.8.45,4.2a9,9,0,0,0,.19,2.09c1.37,4.13,3.74,16.68,3.82,20.51a13.45,13.45,0,0,1,.12,1.4c-.46,5.33-4.14,7.35-9,5-4.25-2-6.06-5.85-7-10-1.15-5-1.93-10.14-2.74-15.24q-.89-5.55-1.42-11.14c-1.19-12.16-2.43-24.31-3.41-36.49-.52-6.42-.7-12.88-.78-19.33s.17-12.65.27-19a4.75,4.75,0,0,0-.14-1.74c-1.34-3.36-.62-6.69,0-10a7.25,7.25,0,0,0,0-2c-.18-2-.75-4-.52-5.88.58-4.94.14-9.82-.13-14.74-.19-3.62,0-7.27.13-10.9.18-6.46.46-12.91.58-19.36.07-4.34-.15-8.68-.05-13a30.65,30.65,0,0,1,1-5.13,7.62,7.62,0,0,0,.38-1.33c0-4.56,0-9.12,0-13.68s.15-9.14.33-13.7c.2-4.93.35-9.87.83-14.77.44-4.39-.2-9,1.87-13.12a1.94,1.94,0,0,0,.19-1c-.29-2.63-.62-5.27-.95-8.09-1.39.38-1.51,1.61-1.83,2.66-.95,3.14-1.67,6.38-2.87,9.42-2.11,5.36-2.72,11.1-4.49,16.52-1.38,4.19-1.4,8.73-3.74,12.71-1.21,2.07-1.6,4.65-2.18,7-.78,3.16-1.2,6.41-2.09,9.53-1.43,5-3.13,9.86-4.69,14.79-.77,2.45-1.54,4.91-2.21,7.39-.83,3.05-1.53,6.14-2.34,9.2-1.5,5.65-3.09,11.27-4.53,16.93-.43,1.72-1,3.12-3.68,3.1,2.33,2.53,1.53,4.59.88,6.73-1.23,4-2.32,8.09-3.47,12.15a2.08,2.08,0,0,1-.19.67c-2.57,3.79-3.19,8.29-4.56,12.51a14.75,14.75,0,0,1-5.24,6.94c-4.75,3.75-11.52,1.75-14-3.88a40.87,40.87,0,0,1-3.33-17.15c.06-4.33-.14-8.61.67-13,.68-3.68-.27-7.64-.26-11.47,0-2.81.34-5.62.6-8.42.16-1.7.89-3.27.08-5.1-.38-.88.17-2.32.6-3.37a16.9,16.9,0,0,0,.94-9c-.34-2.6-.49-5.55.41-7.91,1.86-4.85,1.62-9.92,2.51-14.85.4-2.18.76-4.38,1.13-6.57a58.75,58.75,0,0,0,1-6.56c.13-2.83.13-5.62,1.34-8.28a16.18,16.18,0,0,0,.73-3.44c.1-.54.47-1.39.26-1.58-.41-.36-1.15-.34-1.75-.48Zm17.83-52.41a2.89,2.89,0,0,0-.38-.4s-.26.1-.26.15a3.7,3.7,0,0,0,.14.55ZM73.56,492.33l-.44-.35c-.11.16-.3.33-.29.48s.27.22.41.33Z" transform="translate(-64 -221.29)"/><path class="cls-1" d="M294.55,479.59c-.33-.14-.64-.31-1-.42-3.16-1.11-3.09-1.11-3.2-4.49-.26-7.92-.72-15.85-.82-23.77a77.89,77.89,0,0,1,.79-14.74,55,55,0,0,0,.37-7.43c.09-1.92.28-3.49,2.06-4.41-2-3.8-1.72-7.61-.87-11.43a14.46,14.46,0,0,0,.35-5.84c-.35-2,.27-4.18.53-6.27.61-5,1.27-10,1.9-15a6.17,6.17,0,0,0,.09-1.76c-1-5.37.47-10.46,1.63-15.61a44,44,0,0,0,.51-4.9c.3-2.55.56-5.12.95-7.66q1-6.58,2.14-13.15c.66-3.82,1.23-7.66,2.21-11.4.32-1.25,1.76-2.2,2.6-3.17-.07-2.24-.5-4.62-.14-6.88,1-6.06,1.83-12.2,3.6-18,2.78-9.16,5-18.48,8.08-27.55,1-3,2.86-5.68,3.85-8.67,1.1-3.36,3.46-5.71,5.58-8.29a3.57,3.57,0,0,1,1.76-1.08,9.2,9.2,0,0,1,10.77,8.22c-.08,3.59,1.66,7,.7,10.71a11.12,11.12,0,0,0,.09,3.85,47.54,47.54,0,0,1-.52,15.32c-.86,4.15-.67,8.57-.57,12.86a44.08,44.08,0,0,1-1.5,12.9,4.62,4.62,0,0,0,.22,4.05,3.31,3.31,0,0,1,.38,2.36c-1.88,7.17-.79,14.63-2.27,21.85-.35,1.71.34,3.63.58,5.64,1.41-.24,1.58-1.49,1.88-2.53q2.74-9.63,5.43-19.3a48,48,0,0,1,3.23-9.21c1.16-2.29.94-5.26,1.47-7.91.49-2.41,1.05-4.82,1.76-7.17,1.19-3.93,2.52-7.81,3.79-11.72a6.94,6.94,0,0,1,.31-1c2.79-5.2,3.11-11.16,5.11-16.55,1.76-4.74,1.41-10.07,4.38-14.4.72-1.05,1.26-2.22,2-3.48-2.18-2.42-.18-4.62,1-6.54a14,14,0,0,0,1.81-5.91,16.52,16.52,0,0,1,2-5.91,26.75,26.75,0,0,0,3.58-10.59,18.44,18.44,0,0,1,3.52-8.69,7.45,7.45,0,0,1,8.45-2.81c3.84,1.29,6.58,4.4,5.95,8.14-.92,5.52-.24,11.32-2.83,16.56a10.27,10.27,0,0,0-.58,3.08q-1.05,7.14-2.07,14.27c-.25,1.74-.55,3.47-.7,5.22-.24,2.68-.09,5.4-1.44,7.91a5.63,5.63,0,0,0-.37,2.76,59.89,59.89,0,0,1-1.33,15.05,43.76,43.76,0,0,0-.75,11.49c.14,2.49-.63,5-1,7.56a9.13,9.13,0,0,0-.43,2.35c.63,4.67,1,9.26-.75,13.86-.48,1.23.43,3,.5,4.47.09,2,0,3.94-.05,5.91,0,1.29-.09,2.58-.21,3.86-.61,6.89-.29,13.78-.09,20.67a46.22,46.22,0,0,1-.43,5.62c-.06.58-.4,1.23-.24,1.72,2,5.89,1,12,1.44,18,.29,4.57.08,9.16,1.19,13.66a20.56,20.56,0,0,1,.14,3.86c.1,2.23.2,4.46.36,6.68.09,1.27.54,2.31,2.06,2.38l0-.06c-1.84,2.85-2,5.85-1.25,9.12.58,2.73.55,5.59.93,8.38.84,6.12,1.78,12.23,2.66,18.34.4,2.79.76,5.59,1.18,8.37a55,55,0,0,0,1.3,7.61c1.28,4.31,1.56,8.72,2.1,13.14a118.85,118.85,0,0,0,2.45,11.68c.46,2.06,1,4.1,1.51,6.14.72,2.84,1.5,5.66,2.16,8.51s1,5.77,1.8,8.59a96.71,96.71,0,0,0,4.55,14.31c1,2.23,1.32,4.74,2.14,7.07q4.22,11.94,8.57,23.83c.48,1.31,1.32,2.49,1.78,3.8a51.55,51.55,0,0,1,2.34,7.69c.52,2.92-.59,4.35-3.4,5.31-3.52,1.21-6.34-.21-8.47-2.79a35.82,35.82,0,0,1-6.12-9.78c-2.09-5.47-4.34-10.89-6.66-16.27s-3.23-11-4.58-16.59c-.62-2.57-2-4.94-2.87-7.46-.57-1.64-.82-3.39-1.26-5.08-.37-1.45-.78-2.88-1.2-4.32-.09-.34-.29-.65-.37-1-2.22-9.12-4.67-18.2-6.54-27.39-1-4.77-.79-9.76-1.41-14.61-.36-2.77-1.38-5.44-1.94-8.19-.83-4.14-2.22-8.33-2.07-12.45.17-4.67-2.31-8.66-2.25-13.18,0-2.09-.25-4.19-.36-6.29,0-.69.08-1.4,0-2.09-.67-5.1-1.45-10.2-2-15.31-.21-1.84.24-3.75.12-5.61-.2-3-.71-6-.94-9.07-.18-2.44-.14-4.89-.22-7.33-.2-6.1-.4-12.2-.65-18.29-.08-2-.3-4-.45-5.95a10.87,10.87,0,0,1-.12-1.4c.19-4.42.75-8.87.52-13.27-.32-5.92.92-11.76.22-17.73-.52-4.39.11-8.91.26-13.37.08-2.67.23-5.33.37-8.26a2.78,2.78,0,0,0-2.56,2.21c-1.51,4.55-3.18,9.06-4.45,13.68-1.19,4.28-1.5,8.85-3,13-2,5.45-3.08,11-4.33,16.65-1.35,6-3.55,11.87-5.08,17.87-1.21,4.78-2,9.66-2.93,14.52-.32,1.69-.48,3-2.8,3.29-2.59.33-3.29,2.79-1.43,4.64,1.64,1.62,1.6,3.23,1,5.14-1.31,4.35-2.68,8.68-3.86,13.06-.77,2.82-1.36,5.7-1.85,8.59a25.55,25.55,0,0,1-3.17,9.26c-1.64,2.69-3.9,4.06-7,3.82a7.88,7.88,0,0,1-7.13-5,18.92,18.92,0,0,1-1.17-11.37c.33-1.68.09-3.47.25-5.19.35-3.85.77-7.69,1.19-11.53.08-.69.52-1.37.45-2a89.77,89.77,0,0,1,.22-19.18c.45-4.42.38-8.89.78-13.31.32-3.47,1-6.9,1.52-10.35.1-.7.31-1.38.35-2.08.48-8.55.33-17.14,2.17-25.58a13.14,13.14,0,0,0-.21-2.76c0-3.27-.16-6.55,0-9.81.22-3.72.31-7.53,1.26-11.1s-.44-7.22.59-10.75a1.88,1.88,0,0,0-1.31-2.63c-1.54.78-1.42,2.45-1.82,3.84-1,3.25-2,6.48-2.82,9.75-.44,1.68-.5,3.46-.92,5.15q-1.68,6.84-3.53,13.64c-1.17,4.28-2.44,8.51-2.68,13a13.31,13.31,0,0,1-1.22,3.58c-.4,1.08-1.39,2.29-1.15,3.18.9,3.32-.62,6.13-1.35,9.25l-3.07.45c-.47,2.19.9,2.8,2.14,3.21-.14,1.57-.21,3-.4,4.49-.33,2.64-.73,5.28-1.09,7.92-1,7-1.91,13.91-2.89,20.86-.19,1.4-.44,2.69-2,3.46s-1.94,2.08-.58,3.45c1.63,1.64,1.54,3.23.19,5a2.72,2.72,0,0,0-.29,1.92c.83,4.52-.55,8.83-1.18,13.2-.08.56-.63,1.19-.48,1.62,1.45,4.22,0,8.26-.54,12.37-.45,3.49-.54,7-.8,10.53,0,.7.09,1.6-.29,2-1.12,1.32-.46,2.6-.38,4,.14,2.28.65,4.72-1.13,6.71-.24-.56-.47-1.11-.88-2.05-.85,1.68-.89,2.42.86,2.07a15.14,15.14,0,0,1,.73,8.61,42.93,42.93,0,0,0-.28,5.22c-.1,1.49-.31,3-.47,4.48Zm17.21-148.51c.3-.74.63-1.16.56-1.49s-.58-.52-.9-.77c-.24.35-.67.71-.67,1.06S311.24,330.49,311.76,331.08ZM293.67,468.93a4.27,4.27,0,0,0-1.28-.57c-.19,0-.41.43-.62.67a3.69,3.69,0,0,0,1,.72C292.9,469.8,293.2,469.36,293.67,468.93Zm34.21-210.19c-.26.52-.53.82-.52,1.1s.36.64.55.63a.94.94,0,0,0,.69-.55C328.65,259.73,328.32,259.43,327.88,258.74Zm-14.51,51.72a3.69,3.69,0,0,0-.66-.74c-.1-.06-.5.13-.51.22a2.91,2.91,0,0,0,.16.8Zm-15.95,94.42-.26.47,1.27.68.23-.43Zm21.73,7.21c-.16-.14-.29-.33-.46-.4s-.25.19-.38.29c.14.15.26.35.43.42S319,412.21,319.15,412.09Zm58.62-102.31c0-.08.11-.18.09-.24s-.15-.12-.23-.17l-.15.38Z" transform="translate(-64 -221.29)"/><path class="cls-1" d="M188,447.89a1.86,1.86,0,0,1-2.19-1.89c-.18-3.83-.29-7.66-.35-11.5-.05-3.43,1.36-6.64,1-10.26-.33-3.12,1.12-6.43,1.84-9.64.93-4.2,2-8.35,2.1-12.72a26.92,26.92,0,0,1,1.52-8.84c1.65-4.32,2.05-8.85,3-13.28,1.44-6.65,2.83-13.31,4.44-19.92a15.45,15.45,0,0,1,2.4-5c.79-1.13,2.11-2,3.44-.29a1.47,1.47,0,0,0,1.09.56c2.79-.28,3.42,1.86,3.83,3.74a39.14,39.14,0,0,1,.76,7.34q.3,9.82.33,19.66a27.07,27.07,0,0,1-.77,4.52c2.06.83,2.67,2.6,2.26,5.18-.38,2.42.46,4.8,1.68,7.52l3.86-2.44c4.05-2.58,8.05-5.24,12.15-7.72,1.72-1.05,3.06-2.23,3.25-4.3.37-4.08.69-8.18,1-12.27a3.83,3.83,0,0,0-.3-1.15c-2-.3-3.54.62-5,1.85-2.78,2.33-5.67,4.52-8.38,6.92-.79.7-1.13,1.9-1.81,3.1-1.7-1.35-1.2-2.67-.53-4.1a33.54,33.54,0,0,1,8.61-11.06,164.18,164.18,0,0,1,13.89-10.21c.88-.61,2.16-.64,3-1.18,1.23-.92,2.44-1.88,3.7-2.77a21,21,0,0,1,9-3.7c1-.16,2.32-.7,3.1-.3,4,2,8.78,2.37,12.14,5.74a6.44,6.44,0,0,1,1.79,4.8c0,1.63.27,3.26.34,4.89a13.48,13.48,0,0,1-.06,3.48c-.93,4.49-2,9-3,13.41A20.93,20.93,0,0,1,270,389c-.85,2-1.66,4.1-2.56,6.12-1.24,2.77-2.63,5.48-3.82,8.27a66.52,66.52,0,0,1-11.29,17.24c-3.2,3.71-6.46,7.38-9.72,11-.27.3-.8.35-1.49.64l-.51-3.45c-1.66-.13-3.29.11-4.56-.45-2.73-1.2-4.56-3.24-4.4-6.57.28-6,.44-12,.73-17.94.06-1.37.3-2.66-2-2.88-3.16,5.28-8.33,8.78-13.13,12.67a4.74,4.74,0,0,0-1.81,5.26c.86,3.76,1.59,7.56,2.15,11.38.23,1.58-.35,3.28-.17,4.87s1.1,3.09,1.3,4.68c.82,6.29,1.57,12.59,2.18,18.9a6.36,6.36,0,0,1-7.67,6.86,2.89,2.89,0,0,1-2.39-2.73c-.51-5.11-2.27-10-2-15.29.16-3.66-1.09-7.38-1.7-11.07-.56-3.35-1.06-6.71-1.66-10.05a6.5,6.5,0,0,0-.89-2.28c-.65-1.07-1.57-1.2-2.72-.58-2.25,1.23-4.51,2.45-6.85,3.49a5.12,5.12,0,0,0-3.22,3.45C190.2,436.25,188.07,441.84,188,447.89Zm56-28.54a19.79,19.79,0,0,0,2-3.33c2-6.57,5.58-12.37,8.82-18.34a17.78,17.78,0,0,0,.74-2c1.1-2.83,1.86-5.88,3.4-8.46,2.85-4.8,3.58-10.13,4.7-15.38a8.8,8.8,0,0,0,0-2.46c-.43-5.25-2.68-7-7.91-6.29a7.59,7.59,0,0,0-1.7.44c-3.17,1.24-6.36,2.43-9.47,3.81-2.12.94-3.86,2.38-3.79,5,.11,4.09.28,8.18.46,12.27s.53,8.43.61,12.65-.2,8.39-.09,12.58A27.26,27.26,0,0,0,244.06,419.35Zm-43-25.54A15.76,15.76,0,0,0,199.9,396c-1.47,5.16-1.81,10.57-4,15.59-.74,1.67-1.64,3.91-.11,6.29a15.1,15.1,0,0,0,6.92-4.47,4.12,4.12,0,0,0,.92-2.59A68.87,68.87,0,0,0,201,393.81Zm57.69-35.16c-.42-.32-.73-.68-.85-.62a4.12,4.12,0,0,0-.9.74c.2.22.47.66.59.63A5.51,5.51,0,0,0,258.73,358.65Zm-23.85,13.29c-.16-.12-.34-.34-.49-.33s-.31.25-.46.39l.63.47C234.67,372.3,234.77,372.12,234.88,371.94Z" transform="translate(-64 -221.29)"/><path class="cls-1" d="M736,274.63c-2.83.8-5.7,1.52-8.49,2.46-1.4.47-2.61,1.47-4,2-2.84,1.11-5.75,2-8.62,3.1-4.19,1.54-8.33,3.23-12.56,4.64a20.4,20.4,0,0,0-6.6,3.2c-1.49,1.2-3.6,1.65-5.46,2.39-3.77,1.52-7.48,3.25-11.34,4.47-5.73,1.79-10.6,5.32-16.16,7.41-1.58.59-3.24,1-5.43,1.66-.89,1.79-3.19,2.74-5.46,3.75-8,3.54-15.9,7.44-23.86,11.13-4.32,2-8.59,4.14-12.79,6.32-7,3.61-14.48,6.06-21,10.6a39.37,39.37,0,0,1-5.38,2.62c-2.63,1.3-5.2,2.72-7.89,3.88-1.7.72-3.7.8-5.32,1.64s-2.64,2.21-4,3.27a4.64,4.64,0,0,1-1.92.86c-3.38.64-5.9,3.12-9.07,4.24-2.46.86-3.45,2.78-3.59,5.48-.38,7.16-.67,14.28.33,21.43.59,4.16.6,8.4.83,12.61.13,2.41-1.63,5.13-3.52,5.58a5,5,0,0,1-5.37-3.11,10.26,10.26,0,0,1-.86-3.74c-.23-5.28-.35-10.56-.48-15.85-.08-3.64,0-7.28-.24-10.91a21.66,21.66,0,0,0-1.15-4.2c-2.64,1.47-4.76,2.68-6.9,3.84-5,2.68-9.91,5.39-14.92,8a5.7,5.7,0,0,0-2.94,3.29,62.57,62.57,0,0,1-4.39,9.77,14.77,14.77,0,0,1-.23-2.8,15,15,0,0,1,.76-3.07c.84-2.76.32-4.79-2.18-6.68-3.85-2.93-3.56-6.57,1-8.35,5-2,6.81-5.7,7.74-10.39a9.91,9.91,0,0,1,.49-1.69c3.72-8.87,7.7-17.64,11.08-26.64,1.61-4.32,3.71-8.34,5.66-12.46,1.66-3.51,4.12-6.32,8.15-7.14,3.17-.64,5.28.26,6,3.33a61.16,61.16,0,0,1,1.95,12.8c.21,6.57-.23,13.15-.36,19.73a10.63,10.63,0,0,0,.48,2.08,19,19,0,0,0,3.71-.93c2.85-1.37,5.54-3.11,8.44-4.39,4.89-2.15,9.67-4.52,14.52-6.73,3.07-1.4,6.27-2.53,9.39-3.82a6.69,6.69,0,0,0,1.12-.82,35.17,35.17,0,0,1,4.63-3.13c4.22-2,8.53-3.88,12.81-5.79,7-3.12,13.93-6.25,20.91-9.33,1.5-.67,3.09-1.13,4.61-1.75,1.06-.44,2.07-1,3.09-1.53.51-.27,1-.83,1.48-.93,5.42-1,9.62-4.72,14.69-6.55,7.83-2.82,15.47-6.16,23.23-9.17,9.07-3.51,18.18-6.92,27.29-10.32,1.64-.62,3.4-.89,5.08-1.41,6-1.87,12-3.86,18.22-4.65,1.54-.19,3.09-.17,4.64-.24ZM529.94,360.14c2-1,3.43-1.71,4.84-2.37.84-.39,1.75-.63,2.55-1.07,2.16-1.18,4.26-2.47,6.42-3.65,4.52-2.49,6.11-5.1,5-10a25.14,25.14,0,0,1,.22-10.45c.64-3.22.24-6.3,0-9.43,0-.57-.64-1.1-1.2-2a20.06,20.06,0,0,0-2,2.27c-2.43,4.06-3.83,8.67-6.91,12.4-1.44,1.75-1.92,4.07-2.76,6.17-2,5-3.6,10.17-6.74,14.66C528.52,358,528.14,359.59,529.94,360.14Zm24.24,16.26c0-.18.06-.49,0-.53a1.49,1.49,0,0,0-.6,0c0,.18-.06.49,0,.53A1.44,1.44,0,0,0,554.18,376.4Z" transform="translate(-64 -221.29)"/><path class="cls-1" d="M492.93,322.13a7.21,7.21,0,0,1,4.95-1.61c-.51,1.29-.81,2.24-1.25,3.12-2.66,5.36-5.49,10.64-8,16.07-1.72,3.72-3,7.66-4.53,11.46a24.4,24.4,0,0,1-2.38,4.7c-2.59,3.7-2.09,8.28-3.7,12.25-.84,2.06-1.46,4.21-2.17,6.32a9.2,9.2,0,0,0-.61,2c-.14,1.51-.6,3.3.83,4.29,1.59,1.1,2.77-.47,4-1.28a66.85,66.85,0,0,0,9.84-7.38c1.71-1.64,4.51-2.14,7.71-3.55l1-5.83c-1.77-1.11-2.63.06-3.59.56-3.21,1.69-6.34,3.54-9.57,5.18a5.35,5.35,0,0,1-3,.56,2.81,2.81,0,0,1-2-1.54,2.94,2.94,0,0,1,.92-2.34c3.82-3.6,7.71-7.11,11.63-10.6,1.73-1.54,3.63-2.89,5.36-4.44a61.3,61.3,0,0,0,4.73-4.67c2.17-2.43,3.07-2.95,6.66-3.32.2.58.33,1.63.61,1.66,2,.27,2.17,1.74,2.5,3.31.77,3.68-.74,7-1.8,10.28a21.54,21.54,0,0,0-.94,6.17,32.63,32.63,0,0,1-.51,5.23c-1.23,6.21-2.56,12.4-3.86,18.6-.17.8-.42,1.58-.62,2.37-.49,1.92-1.34,3.83-1.39,5.76a43.45,43.45,0,0,1-3.13,15.35c-.64,1.56-.44,3.44-.75,5.16-.88,5-1.52,10-2.85,14.85-1,3.6-1.45,7.27-2.34,10.88a48.86,48.86,0,0,0-1.21,8.7c-.19,3-2.08,5.16-3.77,7.2-2.06,2.49-5.76,1.32-7.35-2.14a10.18,10.18,0,0,1-1-6.51c1-4.48,1.86-9,2.75-13.47.44-2.18.63-4.42,1.22-6.56s1.77-4,2.22-6.15,0-4.23.38-6.25c1.2-5.73,2.75-11.38,4-17.11.85-4,1.41-8,2.07-12,.39-2.39,2.09-4.48,1.48-7.1-.26-1.1-.33-2.26-.53-3.69-3.14,1.14-5.41,2.76-6.83,5.46-.6,1.15-1.19,2.3-1.76,3.46-2.75,5.58-7.32,9-13.37,11a5.25,5.25,0,0,0-4.52-3c-.75-.06-1.74-1.3-2-2.19a22.65,22.65,0,0,1-1.4-6.49,28.25,28.25,0,0,1,2.36-12.7,9.37,9.37,0,0,0,.93-2.66c.51-4.16,1.65-8,4.45-11.31a.69.69,0,0,0,.2-.29c.46-3.85,2.8-6.91,4.34-10.31,2.16-4.8,4-9.71,7.45-13.88,3-3.58,5.44-7.6,8.14-11.42l1.05,1.55.55-.62Zm1.43,52.29.22-.41-1.38-.74-.21.38Z" transform="translate(-64 -221.29)"/><path class="cls-1" d="M383.49,416.77a27,27,0,0,0,1.36-7.8c.1-4.51,1.36-9,2.16-13.48.1-.57.38-1.11.48-1.68,1.12-6.23,2.19-12.46,3.37-18.68.23-1.25.95-2.4,1.27-3.64.46-1.78.59-3.67,1.16-5.41,1.56-4.75,2-9.89,5-14.15a7.3,7.3,0,0,0,1.26-3.46c.24-2.73,1-4.09,3.52-5a9.23,9.23,0,0,1,10.47,3c2.34,3,3.93,6.45,3.43,10.44-.21,1.72.14,3,2.06,3.78,4.26-4.45,8.49-9.08,15-11.59A19.68,19.68,0,0,1,428,360.69a15,15,0,0,0-2.34,3.23,55.71,55.71,0,0,1-5.38,6.91,9.44,9.44,0,0,0-2.37,5.73c-.31,4.68-.63,9.37-1,14-.25,2.92-.58,5.84-1,8.74-.37,2.43-.81,4.78-.26,7.29.31,1.43-.15,3-.26,4.54a11.59,11.59,0,0,0-.16,3.09c.72,3.31-.93,5.73-2.91,7.92s-4.54,1.75-7.13-1.4a9,9,0,0,1-1.51-4.58,32.31,32.31,0,0,1,.19-6c.54-6.31,1.16-12.62,1.7-18.94a12.5,12.5,0,0,0-.38-2.41,26.48,26.48,0,0,0-5.66,4.77,40.74,40.74,0,0,1-5,4.83,8,8,0,0,0-3.22,4.38c-1.41,4.45-3,8.83-4.53,13.24-.73,2.12-2,1.49-3.27.61Zm23.38-57.63-.92,0a24.71,24.71,0,0,1-1.09,2.53c-4.15,7.44-5.8,15.79-8.71,23.68a4.75,4.75,0,0,0-.45,2.05,8.07,8.07,0,0,0,1,2.12,41.41,41.41,0,0,1,3.23-4c4.82-4.61,6.76-10.21,6.43-16.83-.12-2.39.65-4.81.88-7.23A8.89,8.89,0,0,0,406.87,359.14Zm4-11.64a7.41,7.41,0,0,0-.9-.65,4.26,4.26,0,0,0-.53.66c.16.12.33.35.47.33A4.48,4.48,0,0,0,410.86,347.5Z" transform="translate(-64 -221.29)"/><path class="cls-1" d="M446.52,338a23.32,23.32,0,0,1-1.35,8.1,22.34,22.34,0,0,0-.94,11.44c.56,4.06,1.11,8.13,1.77,12.17a26.85,26.85,0,0,0,1.46,4.08,17.89,17.89,0,0,0,1.67-2.66c1.55-4.38,3-8.79,4.54-13.18a2.77,2.77,0,0,0,.22-.67c.48-6.64,3.09-12.71,4.87-19A82.42,82.42,0,0,1,467.21,319c.92-1.56,1.93-3,3.94-2.94l.36-2.88c.57.15,1.12.17,1.17.33a9.76,9.76,0,0,1,.6,3c-.3,4.91-.47,9.86-1.2,14.71-.54,3.56-1.88,7-2.87,10.5-.51,1.8-1,3.62-1.54,5.4-1.57,5-3.28,10-4.74,15.1-1,3.49-1.63,7.08-2.57,10.59a42.35,42.35,0,0,1-4.46,11.41c-1.46,2.42-2.13,5.41-4.43,7.33-2.61,2.18-5.39,2.84-7.3,1.1-.43-.39-1-.79-1.16-1.29-1-3.72-4.15-6.76-3.44-11,.08-.48-.38-1.05-.68-1.81-3.28,1.87-1.11,6.85-5.21,7.86a6.31,6.31,0,0,1,.6,5.87c-.5,1.67-.57,3.46-.94,5.17a20.62,20.62,0,0,1-1.12,3.71,4.82,4.82,0,0,1-4.71,3,5,5,0,0,1-3.83-4.16,10.61,10.61,0,0,1,.39-4.15c2.34-7.62,4.79-15.2,7.22-22.79a4.33,4.33,0,0,1,.52-1.31c2.69-3.47,2.84-7.83,4.06-11.8s1.89-8,2.89-12a9.47,9.47,0,0,1,1.29-3.22c1.74-2.47,3.65-4.82,5.5-7.21Zm-6.31,38.3-.8-.76a3.43,3.43,0,0,0-.59.69c0,.08.25.47.37.46A4.27,4.27,0,0,0,440.21,376.27Zm27.5-40.88.36-.48c-.17-.09-.37-.3-.48-.25s-.25.3-.37.46Z" transform="translate(-64 -221.29)"/><path class="cls-1" d="M294.5,479.55a30.4,30.4,0,0,1-1,11.31,18.9,18.9,0,0,0-.46-1.87,5.21,5.21,0,0,0-.93-2c-2.51-2.42-2.36-4.47.6-6.4.58-.38,1.21-.69,1.82-1Z" transform="translate(-64 -221.29)"/></svg>