<svg id="圖層_1" data-name="圖層 1" xmlns="http://www.w3.org/2000/svg" viewBox="0 0 18.59 14.13"><defs><style>.cls-1{fill:#fff;}</style></defs><path class="cls-1" d="M435.87,401.54c0,.41-.05.82-.07,1.24a.34.34,0,0,1-.16.28,16,16,0,0,1-4.42,2.22.18.18,0,0,1-.24-.08c-.27-.46-.55-.91-.83-1.37-.06-.1,0-.15.08-.19l1.26-.6c.16-.08.15-.11,0-.24a.41.41,0,0,0-.51-.07,10.2,10.2,0,0,1-3.24.88,10.83,10.83,0,0,1-5.1-.66c-.21-.08-.43-.16-.63-.26a.27.27,0,0,0-.34.05c-.25.2-.26.21,0,.35s.76.37,1.15.54c.13.06.15.11.08.23-.28.45-.56.9-.83,1.35-.06.1-.12.1-.22.07a15.36,15.36,0,0,1-4.44-2.25.36.36,0,0,1-.13-.23c0-.65-.06-1.3-.06-1.94a13.52,13.52,0,0,1,.28-2.53,16.26,16.26,0,0,1,2.39-5.75.91.91,0,0,1,.43-.37,16.19,16.19,0,0,1,3.41-1,.18.18,0,0,1,.22.1c.11.25.25.5.36.75a.19.19,0,0,0,.23.12,12.11,12.11,0,0,1,2.33-.14c.54,0,1.08.09,1.62.14a.18.18,0,0,0,.22-.12c.11-.25.24-.5.36-.75a.15.15,0,0,1,.19-.1,15.25,15.25,0,0,1,3.57,1.11.47.47,0,0,1,.19.15,15.77,15.77,0,0,1,2.24,4.81,13.87,13.87,0,0,1,.51,3.2c0,.37,0,.73,0,1.1Zm-4.53-2.6a1.87,1.87,0,0,0-.44-1.28,1.54,1.54,0,0,0-2.3-.17,2,2,0,0,0,0,2.89,1.56,1.56,0,0,0,2,.17A1.89,1.89,0,0,0,431.34,398.94Zm-6.18,0a1.91,1.91,0,0,0-.53-1.4,1.56,1.56,0,0,0-2.24-.05,2,2,0,0,0,0,2.88,1.54,1.54,0,0,0,1.93.17A1.87,1.87,0,0,0,425.16,399Z" transform="translate(-417.28 -391.17)"/></svg>