<svg id="圖層_1" data-name="圖層 1" xmlns="http://www.w3.org/2000/svg" viewBox="0 0 9.62 18"><defs><style>.cls-1{fill:#fff;}</style></defs><path class="cls-1" d="M398.56,405.59v-3.73c0-.22,0-.22-.22-.22h-2.46c-.14,0-.19,0-.19-.18,0-1,0-1.93,0-2.89,0-.14.05-.18.18-.17h2.49c.16,0,.21,0,.21-.2,0-.89,0-1.79,0-2.67a4.41,4.41,0,0,1,.7-2.31,3.6,3.6,0,0,1,2.41-1.58,7.53,7.53,0,0,1,2.37-.05l1,.11c.25,0,.26,0,.26.27,0,.78,0,1.55,0,2.33,0,.15-.05.19-.19.18-.4,0-.8,0-1.2,0a3.77,3.77,0,0,0-.89.15,1.39,1.39,0,0,0-.95,1.31c-.05.76,0,1.52,0,2.28,0,.14,0,.17.17.17H405c.16,0,.2,0,.17.2-.16,1-.3,1.92-.44,2.88a.17.17,0,0,1-.2.17h-2.26c-.17,0-.21.06-.21.22v7.44c0,.23,0,.23-.23.23h-3c-.25,0-.25,0-.25-.24Z" transform="translate(-395.69 -391.52)"/></svg>