<svg id="圖層_1" data-name="圖層 1" xmlns="http://www.w3.org/2000/svg" viewBox="0 0 17.28 17.26"><defs><style>.cls-1{fill:#fff;}</style></defs><path class="cls-1" d="M409.13,400.48c0,.53,0,1,0,1.58,0,.78,0,1.57-.08,2.35a5.09,5.09,0,0,1-.86,2.66,4.36,4.36,0,0,1-2.84,1.83,10.53,10.53,0,0,1-1.78.18c-1.68,0-3.37.06-5.06,0a19.44,19.44,0,0,1-2.65-.18A4.47,4.47,0,0,1,392,405.2a9.89,9.89,0,0,1-.14-1.53c0-1.34,0-2.69,0-4,0-.82,0-1.64,0-2.46a6.71,6.71,0,0,1,.49-2.54,4.3,4.3,0,0,1,2.22-2.24,5.06,5.06,0,0,1,2.09-.47c2.09,0,4.18-.07,6.27-.06a10.09,10.09,0,0,1,2.57.24,4.47,4.47,0,0,1,3.41,3.67,10.72,10.72,0,0,1,.14,1.5c0,1.07,0,2.14,0,3.2Zm-8.69-7.13h0c-.76,0-1.51,0-2.26,0a19.83,19.83,0,0,0-2.18.19,2.88,2.88,0,0,0-2.4,2.23,12.09,12.09,0,0,0-.24,2.81c0,1.95-.09,3.9.1,5.85a5,5,0,0,0,.28,1.21,2.89,2.89,0,0,0,2.58,1.84c.93.09,1.87.14,2.81.15,1.34,0,2.68,0,4,0a12.37,12.37,0,0,0,1.93-.19,2.81,2.81,0,0,0,2.31-2.18,8.94,8.94,0,0,0,.24-2.31c0-1.76,0-3.53,0-5.3a8.8,8.8,0,0,0-.19-1.77,2.8,2.8,0,0,0-2.15-2.25,10.45,10.45,0,0,0-2.43-.25C402,393.33,401.23,393.35,400.44,393.35Z" transform="translate(-391.86 -391.86)"/><path class="cls-1" d="M400.5,404.9a4.42,4.42,0,1,1,0-8.83,4.42,4.42,0,1,1,0,8.83Zm2.91-4.41a2.92,2.92,0,1,0-3,2.91A2.93,2.93,0,0,0,403.41,400.49Z" transform="translate(-391.86 -391.86)"/><path class="cls-1" d="M404.13,395.85a1,1,0,1,1,1,1A1,1,0,0,1,404.13,395.85Z" transform="translate(-391.86 -391.86)"/></svg>