<svg id="圖層_1" data-name="圖層 1" xmlns="http://www.w3.org/2000/svg" viewBox="0 0 16.82 13.77"><defs><style>.cls-1{fill:#fff;}</style></defs><path class="cls-1" d="M392.09,405.91a7.16,7.16,0,0,0,5.09-1.47,3.58,3.58,0,0,1-3.27-2.4,4,4,0,0,0,1.61-.09,3.54,3.54,0,0,1-2-1.21,3.48,3.48,0,0,1-.79-2.22,3.56,3.56,0,0,0,1.55.42,3.57,3.57,0,0,1-1.09-4.65,10,10,0,0,0,7.2,3.65c0-.22,0-.4-.05-.58a3.31,3.31,0,0,1,.9-2.58,3.35,3.35,0,0,1,3.12-1.07,3.3,3.3,0,0,1,1.87,1,.24.24,0,0,0,.25.07,6.68,6.68,0,0,0,1.89-.73l.13-.06a2.7,2.7,0,0,1-.58,1.07c-.27.29-.57.55-.85.81a8,8,0,0,0,1.87-.46,4.87,4.87,0,0,1-.33.43c-.38.39-.77.77-1.17,1.13a.48.48,0,0,0-.19.39,9.82,9.82,0,0,1-1.85,6,9.23,9.23,0,0,1-5.6,3.82,10.43,10.43,0,0,1-3.2.25,9.65,9.65,0,0,1-4.42-1.45Z" transform="translate(-392.09 -393.66)"/></svg>